<?xml version="1.0" encoding="UTF-8" ?>
<!DOCTYPE svg PUBLIC "-//W3C//DTD SVG 1.1//EN" "http://www.w3.org/Graphics/SVG/1.1/DTD/svg11.dtd">
<svg width="512pt" height="512pt" viewBox="0 0 512 512" version="1.1" xmlns="http://www.w3.org/2000/svg">
<path fill="#f40100" stroke="#f40100" stroke-width="0.09375" opacity="1.00" d=" M 237.3 16.1 C 246.8 14.9 256.5 15.6 266.0 15.4 C 274.7 15.1 283.2 17.2 291.9 18.0 C 318.8 22.0 345.1 30.8 369.2 43.7 C 376.8 48.2 385.1 51.4 391.9 57.1 C 396.1 60.7 401.1 63.2 405.1 67.0 C 408.0 69.7 411.6 71.6 414.5 74.5 C 422.3 82.6 430.6 90.4 438.4 98.6 C 443.7 106.2 449.7 113.4 454.9 121.1 C 472.4 145.6 482.9 174.3 489.8 203.4 C 491.7 213.8 494.1 224.2 494.6 234.8 C 496.1 243.7 495.8 252.9 495.6 261.9 C 493.7 277.3 492.5 292.9 488.3 308.0 C 486.0 319.3 481.9 330.2 478.2 341.2 C 475.9 348.7 471.5 355.2 468.3 362.3 C 462.1 373.5 455.8 384.7 447.8 394.8 C 443.1 400.4 439.5 407.0 434.0 412.0 C 427.3 418.7 420.6 425.3 414.0 432.0 C 411.2 434.6 407.9 436.5 405.0 439.0 C 397.7 445.9 389.0 451.1 380.5 456.5 C 375.7 459.5 370.3 461.5 365.5 464.5 C 356.5 470.0 346.5 473.9 336.6 477.4 C 327.8 481.0 318.7 483.2 309.4 484.8 C 302.3 486.1 295.4 488.1 288.2 488.6 C 281.7 489.1 275.5 491.6 269.0 491.7 C 257.8 491.7 246.5 492.2 235.5 489.7 C 219.5 487.8 203.6 484.9 188.2 480.1 C 171.1 474.1 153.5 468.7 138.4 458.6 C 133.5 455.5 128.1 453.1 123.7 449.3 C 117.5 444.1 110.1 440.4 104.5 434.5 C 94.1 425.6 84.4 415.9 75.5 405.6 C 68.7 398.6 63.1 390.4 57.8 382.2 C 52.6 372.2 45.6 363.1 41.6 352.5 C 38.3 343.7 34.7 335.1 31.5 326.3 C 25.6 307.7 21.9 288.4 19.7 269.0 C 19.2 261.4 19.5 253.7 19.5 246.0 C 19.3 238.3 21.2 230.7 21.8 223.1 C 23.4 209.1 26.9 195.5 30.8 182.1 C 34.0 168.2 40.6 155.5 46.9 142.9 C 53.3 131.5 60.2 120.5 68.0 110.1 C 71.6 103.8 77.1 99.1 81.6 93.5 C 90.5 84.1 99.8 75.2 109.7 66.8 C 113.0 64.5 116.5 62.3 119.5 59.6 C 126.4 53.8 134.6 50.0 142.0 45.1 C 150.7 39.8 160.1 35.8 169.7 32.5 C 185.1 26.5 200.9 21.5 217.2 18.9 C 223.9 17.7 230.7 17.2 237.3 16.1 M 145.0 64.1 C 141.1 66.5 137.7 69.5 133.7 71.6 C 132.0 72.7 129.5 73.4 129.2 75.7 C 132.7 78.2 136.5 80.4 139.7 83.3 C 147.7 90.2 157.0 95.3 165.3 101.8 C 173.7 107.3 180.9 114.4 189.6 119.5 C 196.7 123.9 202.5 130.1 209.8 134.3 C 216.9 138.6 222.8 144.6 229.8 149.1 C 235.0 152.2 239.8 155.7 244.4 159.6 C 249.5 164.0 255.6 167.1 260.8 171.2 C 267.8 176.7 274.7 182.2 282.2 186.9 C 286.8 189.8 290.7 193.8 295.3 196.6 C 303.1 201.3 309.9 207.4 317.2 212.7 C 318.3 213.7 319.7 214.6 320.3 216.1 C 319.8 219.4 318.8 222.6 317.5 225.7 C 317.0 226.8 316.6 228.5 315.1 228.5 C 310.6 226.1 307.4 221.8 303.0 219.1 C 295.8 214.5 288.8 209.4 282.2 203.9 C 275.8 200.1 270.1 195.3 264.3 190.8 C 256.5 185.1 248.1 180.4 240.9 174.0 C 237.5 171.0 233.3 169.0 229.8 166.2 C 225.3 162.7 220.9 159.1 216.2 155.9 C 207.2 150.4 199.4 143.3 190.7 137.4 C 182.4 132.1 175.1 125.4 166.6 120.3 C 162.3 117.8 159.5 113.0 154.4 112.1 C 156.3 119.5 159.1 126.7 161.2 134.0 C 169.5 157.8 176.7 181.9 185.3 205.5 C 186.0 208.1 187.1 210.8 186.5 213.5 C 183.9 216.4 180.4 218.5 176.9 220.3 C 174.5 218.7 174.0 215.7 173.0 213.2 C 165.4 190.7 158.1 168.1 150.5 145.6 C 145.3 127.3 138.9 109.3 133.1 91.2 C 131.2 86.3 130.1 81.2 128.0 76.4 C 123.8 77.4 121.0 81.1 117.5 83.5 C 109.8 89.1 103.9 96.5 96.9 102.9 C 92.6 107.0 89.6 112.2 85.5 116.5 C 79.8 122.4 76.2 129.9 71.4 136.5 C 68.0 141.0 66.1 146.4 63.1 151.2 C 59.8 156.8 57.7 163.2 54.9 169.1 C 51.2 176.9 49.2 185.3 46.2 193.4 C 41.9 205.6 40.4 218.6 38.7 231.3 C 37.9 246.5 38.0 261.7 38.7 276.9 C 40.6 286.6 41.3 296.7 44.6 306.2 C 46.1 310.7 46.6 315.5 48.9 319.8 C 59.2 313.7 68.5 306.0 78.5 299.4 C 82.5 296.6 86.0 292.9 90.2 290.3 C 97.7 285.6 104.9 280.4 112.0 275.0 C 116.1 271.2 120.8 268.3 125.4 265.4 C 131.3 261.7 136.1 256.8 141.7 252.8 C 150.9 246.3 159.8 239.3 169.4 233.4 C 174.7 230.1 179.1 225.7 184.1 222.1 C 196.4 214.3 207.8 205.2 219.6 196.6 C 227.0 192.1 233.3 186.0 241.0 182.0 C 244.6 183.9 248.1 186.2 251.5 188.6 C 252.3 191.8 248.2 192.7 246.2 194.3 C 235.9 201.6 225.5 208.7 215.6 216.6 C 209.8 221.5 203.0 225.2 197.2 230.1 C 188.6 235.7 180.3 241.8 172.2 248.2 C 167.9 251.6 162.8 254.0 158.7 257.7 C 153.8 262.0 148.4 265.6 143.0 269.1 C 135.6 273.9 129.2 280.2 121.6 284.7 C 117.9 286.9 115.0 290.1 111.6 292.5 C 106.0 296.2 100.3 300.0 95.4 304.6 C 95.2 305.0 94.7 305.9 94.4 306.3 C 100.2 306.9 106.1 306.5 112.0 306.6 C 140.1 306.7 168.3 306.4 196.4 306.7 C 199.5 310.8 201.0 316.3 201.7 321.5 C 156.2 321.6 110.6 321.5 65.0 321.5 C 59.9 321.6 54.7 321.3 49.6 321.8 C 50.0 327.8 53.6 332.9 55.3 338.6 C 58.4 348.6 64.8 357.1 69.6 366.3 C 72.6 372.1 76.8 377.1 80.3 382.6 C 88.4 395.2 99.3 405.6 110.0 416.0 C 120.6 426.0 133.2 433.5 145.1 441.8 C 155.7 448.4 166.9 454.0 178.7 458.2 C 198.9 466.1 220.4 470.9 242.1 472.4 C 252.6 473.8 263.4 473.8 273.9 472.4 C 291.8 471.3 309.2 467.1 326.3 462.0 C 343.8 455.9 361.2 448.4 376.3 437.4 C 383.8 432.7 391.1 427.6 398.0 422.0 C 404.1 415.5 411.5 410.2 417.3 403.2 C 421.1 398.4 426.2 394.7 429.5 389.5 C 432.7 384.2 437.4 379.9 440.6 374.7 C 445.2 368.0 448.5 360.6 452.6 353.7 C 455.6 347.8 458.0 341.6 460.7 335.5 C 462.3 331.0 464.7 326.6 465.5 321.7 C 458.3 321.2 451.2 321.7 444.0 321.5 C 373.3 321.5 302.7 321.5 232.0 321.6 C 230.9 321.6 229.9 321.4 228.9 321.1 C 227.1 316.9 225.2 312.5 224.9 308.0 C 229.2 307.2 233.6 307.6 238.0 307.5 C 299.7 307.5 361.3 307.6 423.0 307.5 C 420.2 303.1 415.3 300.9 411.3 297.7 C 401.4 290.6 391.6 283.2 381.3 276.6 C 376.4 273.4 372.2 269.0 367.2 265.8 C 361.2 262.0 355.2 257.9 349.9 253.1 C 346.2 249.9 340.9 248.5 338.5 244.0 C 339.2 239.7 340.4 235.4 342.8 231.8 C 351.3 235.9 358.0 242.9 365.8 248.1 C 375.8 254.3 384.4 262.3 394.2 268.6 C 401.7 273.9 408.9 279.5 416.6 284.4 C 421.1 288.0 425.5 291.7 430.5 294.6 C 442.5 302.9 454.0 311.9 466.1 320.2 C 467.9 316.5 468.3 312.3 469.6 308.4 C 473.0 297.2 474.3 285.4 475.9 273.8 C 476.7 267.6 476.4 261.3 476.5 255.0 C 476.4 246.3 476.9 237.6 475.4 229.0 C 472.4 203.1 465.0 177.8 453.5 154.5 C 449.6 147.7 446.7 140.4 441.8 134.2 C 435.3 124.3 428.7 114.2 420.0 106.0 C 411.5 96.5 402.9 86.8 392.2 79.7 C 387.6 75.0 381.7 72.3 376.3 68.6 C 365.2 60.0 352.1 54.3 339.2 48.9 C 327.2 43.6 314.4 40.5 301.7 37.6 C 288.0 34.8 274.0 33.2 260.0 33.5 C 219.8 32.3 179.5 43.7 145.0 64.1 Z" />
<path fill="#f40100" stroke="#f40100" stroke-width="0.09375" opacity="1.00" d=" M 358.1 96.0 C 367.7 89.9 375.8 81.5 385.9 76.1 C 385.4 82.6 382.2 88.4 380.5 94.6 C 370.9 127.2 359.1 159.1 349.4 191.6 C 341.3 216.2 333.1 240.7 325.1 265.3 C 320.6 277.0 317.3 289.2 312.8 300.8 C 308.7 302.1 304.2 301.5 300.0 301.1 C 300.2 296.7 302.0 292.6 303.3 288.4 C 309.6 269.9 315.4 251.2 321.2 232.5 C 324.3 219.4 329.2 206.9 333.3 194.1 C 336.3 185.1 339.2 176.1 342.2 167.1 C 347.9 151.6 352.6 135.7 358.0 120.2 C 359.0 117.6 359.6 114.9 359.8 112.1 C 356.0 113.5 353.1 116.5 349.9 118.8 C 346.4 121.3 343.1 124.0 339.7 126.6 C 329.0 133.5 319.2 141.6 308.6 148.7 C 302.8 153.6 296.7 158.2 290.2 162.2 C 284.7 165.7 280.2 170.8 274.0 173.1 C 271.3 172.5 269.1 170.6 266.9 169.2 C 265.3 168.0 262.8 166.8 263.5 164.5 C 269.2 159.3 276.3 156.2 282.1 151.1 C 285.7 147.9 289.9 145.6 293.9 142.8 C 300.4 138.4 306.2 133.0 313.0 128.8 C 320.5 124.2 326.7 117.8 334.4 113.3 C 342.6 108.0 349.7 101.1 358.1 96.0 Z" />
<path fill="#f40100" stroke="#f40100" stroke-width="0.09375" opacity="1.00" d=" M 184.3 247.3 C 186.7 243.6 191.3 241.5 195.1 239.3 C 200.9 253.1 204.7 267.7 209.3 281.9 C 216.0 302.8 223.3 323.4 229.9 344.3 C 236.4 362.2 242.1 380.5 248.1 398.6 C 250.5 407.8 253.0 417.1 257.1 425.8 C 258.5 424.1 259.4 422.0 260.1 419.9 C 263.2 410.2 266.3 400.5 269.8 391.0 C 275.8 372.4 282.1 354.0 288.1 335.4 C 289.1 332.4 289.6 329.2 291.5 326.6 C 295.9 326.2 300.3 326.4 304.7 326.5 C 304.6 328.4 304.2 330.2 303.7 331.9 C 294.4 361.2 284.4 390.2 275.2 419.4 C 270.1 432.0 266.5 445.0 262.0 457.7 C 260.2 461.9 260.6 467.3 257.0 470.3 C 253.3 461.1 250.9 451.3 247.2 442.0 C 240.7 422.2 234.1 402.5 227.6 382.7 C 224.6 370.3 220.5 358.1 216.0 346.2 C 207.4 320.0 198.4 294.1 190.5 267.7 C 188.6 260.9 185.3 254.3 184.3 247.3 Z" />
</svg>
